<svg width="112" height="32" viewBox="0 0 112 32" fill="none" xmlns="http://www.w3.org/2000/svg">
<rect width="112" height="31.8356" fill="white"/>
<path d="M16.2016 26.1067C16.2016 26.3461 16.0912 26.4658 15.8702 26.4658H13.2191C12.9981 26.4658 12.8877 26.3461 12.8877 26.1067V9.89589C12.8877 9.12263 13.1546 8.46904 13.6885 7.93512C14.2225 7.40121 14.876 7.13425 15.6493 7.13425H24.1276C24.3669 7.13425 24.4866 7.24471 24.4866 7.46564V9.56449C24.4866 9.78543 24.3669 9.89589 24.1276 9.89589H16.892C16.6895 9.89589 16.5238 9.96033 16.395 10.0892C16.2661 10.2181 16.2016 10.3838 16.2016 10.5863V16.1096C16.2016 15.9071 16.2661 15.7414 16.395 15.6125C16.5238 15.4836 16.6895 15.4192 16.892 15.4192H23.5752C23.8146 15.4192 23.9342 15.5296 23.9342 15.7506V17.8494C23.9342 18.0704 23.8146 18.1808 23.5752 18.1808H16.2016V26.1067Z" fill="black"/>
<path d="M29.4705 26.1067C29.4705 26.3461 29.36 26.4658 29.1391 26.4658H26.4879C26.267 26.4658 26.1565 26.3461 26.1565 26.1067V13.0165C26.1565 12.7772 26.267 12.6575 26.4879 12.6575H29.1391C29.36 12.6575 29.4705 12.7772 29.4705 13.0165V26.1067ZM29.4705 9.81304C29.4705 10.0524 29.36 10.1721 29.1391 10.1721H26.4879C26.267 10.1721 26.1565 10.0524 26.1565 9.81304V7.49326C26.1565 7.25392 26.267 7.13425 26.4879 7.13425H29.1391C29.36 7.13425 29.4705 7.25392 29.4705 7.49326V9.81304Z" fill="black"/>
<path d="M36.229 15.4192C36.0264 15.4192 35.8607 15.4836 35.7319 15.6125C35.603 15.7414 35.5385 15.9071 35.5385 16.1096V26.1067C35.5385 26.3461 35.4281 26.4658 35.2071 26.4658H32.556C32.335 26.4658 32.2246 26.3461 32.2246 26.1067V15.4192C32.2246 14.6459 32.4915 13.9923 33.0254 13.4584C33.5594 12.9245 34.213 12.6575 34.9862 12.6575H38.7697C39.009 12.6575 39.1287 12.768 39.1287 12.9889V15.0878C39.1287 15.3087 39.009 15.4192 38.7697 15.4192H36.229Z" fill="black"/>
<path d="M43.9669 26.4658C43.1937 26.4658 42.5401 26.1988 42.0062 25.6649C41.4723 25.131 41.2053 24.4774 41.2053 23.7041V15.4192C41.2053 14.6459 41.4723 13.9923 42.0062 13.4584C42.5401 12.9245 43.1937 12.6575 43.9669 12.6575H49.4902C50.2635 12.6575 50.9171 12.9245 51.451 13.4584C51.9849 13.9923 52.2519 14.6459 52.2519 15.4192V18.1808C52.2519 18.9541 51.9849 19.6077 51.451 20.1416C50.9171 20.6755 50.2635 20.9425 49.4902 20.9425H44.5193V23.0137C44.5193 23.2162 44.5837 23.3819 44.7126 23.5108C44.8415 23.6397 45.0072 23.7041 45.2097 23.7041H51.0644C51.3037 23.7041 51.4234 23.8146 51.4234 24.0355V26.1344C51.4234 26.3553 51.3037 26.4658 51.0644 26.4658H43.9669ZM44.5193 18.8712C44.5193 18.6687 44.5837 18.503 44.7126 18.3741C44.8415 18.2453 45.0072 18.1808 45.2097 18.1808H48.2475C48.45 18.1808 48.6157 18.1164 48.7446 17.9875C48.8735 17.8586 48.9379 17.6929 48.9379 17.4904V16.1096C48.9379 15.9071 48.8735 15.7414 48.7446 15.6125C48.6157 15.4836 48.45 15.4192 48.2475 15.4192H45.2097C45.0072 15.4192 44.8415 15.4836 44.7126 15.6125C44.5837 15.7414 44.5193 15.9071 44.5193 16.1096V18.8712Z" fill="black"/>
<path d="M57.7752 26.4658C57.0019 26.4658 56.3483 26.1988 55.8144 25.6649C55.2805 25.131 55.0135 24.4774 55.0135 23.7041V15.4192C55.0135 14.6459 55.2805 13.9923 55.8144 13.4584C56.3483 12.9245 57.0019 12.6575 57.7752 12.6575H64.8726C65.1119 12.6575 65.2316 12.768 65.2316 12.9889V15.0878C65.2316 15.3087 65.1119 15.4192 64.8726 15.4192H59.0179C58.8154 15.4192 58.6497 15.4836 58.5208 15.6125C58.3919 15.7414 58.3275 15.9071 58.3275 16.1096V23.0137C58.3275 23.2162 58.3919 23.3819 58.5208 23.5108C58.6497 23.6397 58.8154 23.7041 59.0179 23.7041H64.8726C65.1119 23.7041 65.2316 23.8146 65.2316 24.0355V26.1344C65.2316 26.3553 65.1119 26.4658 64.8726 26.4658H57.7752Z" fill="black"/>
<path d="M79.0323 26.1067C79.0323 26.3461 78.9218 26.4658 78.7009 26.4658H76.0497C75.8288 26.4658 75.7183 26.3461 75.7183 26.1067V16.1096C75.7183 15.9071 75.6539 15.7414 75.525 15.6125C75.3961 15.4836 75.2304 15.4192 75.0279 15.4192H71.9901C71.7876 15.4192 71.6219 15.3547 71.493 15.2259C71.3641 15.097 71.2997 14.9313 71.2997 14.7288V26.1067C71.2997 26.3461 71.1892 26.4658 70.9683 26.4658H68.3171C68.0962 26.4658 67.9857 26.3461 67.9857 26.1067V7.49326C67.9857 7.25392 68.0962 7.13425 68.3171 7.13425H70.9683C71.1892 7.13425 71.2997 7.25392 71.2997 7.49326V12.6575H76.2706C77.0439 12.6575 77.6975 12.9245 78.2314 13.4584C78.7653 13.9923 79.0323 14.6459 79.0323 15.4192V26.1067Z" fill="black"/>
<path d="M85.1079 26.1067C85.1079 26.3461 84.9974 26.4658 84.7765 26.4658H82.1253C81.9044 26.4658 81.7939 26.3461 81.7939 26.1067V13.0165C81.7939 12.7772 81.9044 12.6575 82.1253 12.6575H84.7765C84.9974 12.6575 85.1079 12.7772 85.1079 13.0165V26.1067ZM85.1079 9.81304C85.1079 10.0524 84.9974 10.1721 84.7765 10.1721H82.1253C81.9044 10.1721 81.7939 10.0524 81.7939 9.81304V7.49326C81.7939 7.25392 81.9044 7.13425 82.1253 7.13425H84.7765C84.9974 7.13425 85.1079 7.25392 85.1079 7.49326V9.81304Z" fill="black"/>
<path d="M91.176 26.4658V31.63C91.176 31.8694 91.0655 31.989 90.8446 31.989H88.1934C87.9725 31.989 87.862 31.8694 87.862 31.63V15.4192C87.862 14.6459 88.1289 13.9923 88.6629 13.4584C89.1968 12.9245 89.8504 12.6575 90.6236 12.6575H96.1469C96.9202 12.6575 97.5738 12.9245 98.1077 13.4584C98.6416 13.9923 98.9086 14.6459 98.9086 15.4192V23.7041C98.9086 24.4774 98.6416 25.131 98.1077 25.6649C97.5738 26.1988 96.9202 26.4658 96.1469 26.4658H91.176ZM91.176 24.3945C91.176 24.192 91.2404 24.0263 91.3693 23.8974C91.4981 23.7685 91.6638 23.7041 91.8664 23.7041H94.9042C95.1067 23.7041 95.2724 23.6397 95.4013 23.5108C95.5301 23.3819 95.5946 23.2162 95.5946 23.0137V16.1096C95.5946 15.9071 95.5301 15.7414 95.4013 15.6125C95.2724 15.4836 95.1067 15.4192 94.9042 15.4192H91.8664C91.6638 15.4192 91.4981 15.4836 91.3693 15.6125C91.2404 15.7414 91.176 15.9071 91.176 16.1096V24.3945Z" fill="black"/>
</svg>
